<svg id="svg" xmlns="http://www.w3.org/2000/svg" xmlns:xlink="http://www.w3.org/1999/xlink" width="400" height="353.3333333333333" viewBox="0, 0, 400,353.3333333333333"><g id="svgg"><path id="path0" d="M115.333 80.188 C 115.333 80.665,116.704 82.393,118.380 84.028 C 126.018 91.480,131.162 100.418,133.708 110.667 C 135.428 117.589,135.056 225.455,133.293 230.819 C 126.571 251.281,99.110 248.838,96.252 227.524 C 96.066 226.136,95.777 224.325,95.611 223.500 L 95.308 222.000 75.987 222.000 L 56.667 222.000 56.667 224.285 C 56.667 258.477,83.663 282.818,119.667 281.089 C 147.797 279.738,168.458 263.355,174.427 237.667 C 175.597 232.633,175.667 228.048,175.667 156.000 L 175.667 79.667 145.500 79.493 C 121.080 79.353,115.333 79.485,115.333 80.188 M186.974 80.167 C 186.800 80.625,186.735 125.100,186.829 179.000 L 187.000 277.000 207.000 277.000 L 227.000 277.000 227.172 239.925 L 227.344 202.850 232.348 202.396 C 242.430 201.483,239.203 197.582,260.154 236.000 C 265.653 246.083,271.727 257.183,273.652 260.667 C 275.577 264.150,278.264 269.146,279.624 271.768 C 281.246 274.896,282.596 276.670,283.548 276.926 C 285.889 277.554,327.219 277.390,327.614 276.752 C 327.812 276.432,325.477 272.007,322.426 266.918 C 319.375 261.830,313.332 251.667,308.998 244.333 C 304.664 237.000,297.984 225.750,294.153 219.333 C 278.946 193.863,280.437 197.372,284.169 195.831 C 308.176 185.920,322.919 155.681,317.041 128.408 C 310.841 99.637,291.074 82.669,260.667 80.014 C 248.911 78.988,187.374 79.115,186.974 80.167 M249.667 117.520 C 270.336 117.958,282.351 132.190,277.068 149.979 C 273.230 162.901,265.377 166.667,242.263 166.667 L 227.333 166.667 227.333 141.833 L 227.332 117.000 233.833 117.161 C 237.408 117.250,244.533 117.412,249.667 117.520 " stroke="none" fill="#000000" fill-rule="evenodd"></path></g></svg>